<?xml  version="1.0" encoding="UTF-8"?>
<!DOCTYPE svg PUBLIC "-//W3C//DTD SVG 1.0//EN" "http://www.w3.org/TR/2001/REC-SVG-20010904/DTD/svg10.dtd" >
<svg xmlns="http://www.w3.org/2000/svg" >
<metadata>
<version>1.0</version>
<id><![CDATA[Proxima N W15 Black It]]></id>
<vendor>Monotype Imaging Inc.</vendor>
<credits>
<name>Fonts.com WebFonts</name>
<URL>http://webfonts.fonts.com</URL>
<role>Home of the Web fonts</role>
</credits>
<license>
<URL>http://webfonts.fonts.com/Legal</URL>
</license>
<copyright><![CDATA[Copyright (c) Mark Simonson, 2005. All rights reserved.]]></copyright>
<trademark><![CDATA[Proxima Nova is a trademark of Mark Simonson.]]></trademark>
<licensee>
<name></name>
</licensee>
</metadata>
<defs >
<font horiz-adv-x="558" id="837512b9-1b3b-4886-81cc-7bdaacefb837">
<font-face font-family="" panose-1="2 0 5 6 3 0 0 2 0 4" ascent="741" descent="-259" units-per-em="1000" alphabetic="0">
</font-face>
<missing-glyph horiz-adv-x="0" />

<glyph unicode="&#xA;" />
<glyph unicode="&#xD;" horiz-adv-x="0" />
<glyph unicode=" " horiz-adv-x="255" />
<glyph unicode="!" horiz-adv-x="283" d="M60 248L126 667H340L222 248H60ZM98 -13Q57 -13 29 16T1 86Q1 110 10 131T36 167T73 192T118 202Q159 202 187 173T215 103Q215 79 206 58T180 22T143 -3T98 -13Z"  />
<glyph unicode="&quot;" horiz-adv-x="469" d="M110 339Q109 398 108 446Q108 467 108 487T107 524T107 554T107 571Q107 593 115 612T138 646T172 669T213 677Q245 677 269 654T294 594Q294 583 291 573T285 557Q283 552 278 541T266 513T249 478T231 439Q210 393 184 339H110ZM328 339Q327 398 326 446Q326 467 326 487T325 524T325 554T325 571Q325 593 333 612T356 646T390 669T431 677Q463 677 487 654T512 594Q512 583 509 573T503 557Q501 552 496 541T484 513T467 478T449 439Q428 393 402 339H328Z"  />
<glyph unicode="#" horiz-adv-x="646" d="M196 0L284 158H205L118 0H-9L79 158H-7L52 267H140L212 399H125L183 507H273L361 667H488L400 507H478L566 667H693L604 507H692L635 399H544L471 267H562L504 158H410L323 0H196ZM417 399H339L267 267H344L417 399Z"  />
<glyph unicode="$" horiz-adv-x="635" d="M208 1Q140 16 86 46T-3 118L117 262Q134 239 159 221T215 189T279 168T347 160Q376 160 388 170T400 189Q400 203 377 213T318 235T241 261T164 299T105 355T81 438Q81 481 98 523T150 598T236 653T357 677L378 768H506L482 662Q533 649 578 625T658 566L537 426Q495 468 439 487T334 507Q314 507 304 499T293 480Q293 467 316 457T376 435T453 408T530 370T589 313T613 231Q613 178 594 134T538 58T449 7T333 -12L313 -100H185L208 1Z"  />
<glyph unicode="%" horiz-adv-x="784" d="M77 0L650 667H748L174 0H77ZM555 -12Q522 -12 491 -3T436 25T398 69T384 130Q384 173 399 209T441 270T502 310T576 324Q609 324 640 315T695 287T733 243T747 182Q747 139 732 103T690 42T629 2T555 -12ZM559 94Q587 94 606 114T625 171Q625 191 611 204T572 218Q544 218 525 198T506 141Q506 121 520 108T559 94ZM247 341Q214 341 183 350T128 378T90 422T76 483Q76 526 91 562T133 623T194 663T268 677Q301 677 332 668T387 640T425 596T439 535Q439 492 424 456T382 395T321 355T247 341ZM251 447Q279 447 298 467T317 524Q317 544 303 557T264 571Q236 571 217 551T198 494Q198 474 212 461T251 447Z"  />
<glyph unicode="&amp;" horiz-adv-x="652" d="M388 0Q384 5 381 10T372 22Q299 -12 225 -12Q176 -12 134 -2T61 30T12 87T-6 173Q-6 221 9 256T51 317T111 360T182 391Q176 415 173 438T169 484Q169 526 186 561T232 622T302 662T391 677Q429 677 465 668T529 640T574 593T591 526Q591 482 574 452T529 401T464 366T391 341Q396 330 401 320T413 298L444 239Q488 286 517 338L641 258Q613 221 582 186T515 119Q534 90 553 61T595 0H388ZM257 126Q277 126 297 133Q286 151 276 167T260 197Q250 215 241 233T224 271Q189 241 189 194Q189 160 208 143T257 126ZM347 485Q347 462 353 440Q389 452 412 467T435 509Q435 531 425 541T398 552Q378 552 363 536T347 485Z"  />
<glyph unicode="&apos;" horiz-adv-x="252" d="M110 339Q109 398 108 446Q108 467 108 487T107 524T107 554T107 571Q107 593 115 612T138 646T172 669T213 677Q245 677 269 654T294 594Q294 583 291 573T285 557Q283 552 278 541T266 513T249 478T231 439Q210 393 184 339H110Z"  />
<glyph unicode="(" horiz-adv-x="346" d="M118 -199Q94 -170 76 -133T46 -53T28 34T22 123Q22 202 43 281T102 434T193 572T311 685L406 588Q360 538 324 479T263 355T224 220T210 81Q210 26 221 -27T250 -123L118 -199Z"  />
<glyph unicode=")" horiz-adv-x="347" d="M227 685Q251 656 269 619T299 539T317 452T323 363Q323 284 302 205T243 52T152 -86T34 -199L-61 -102Q-15 -52 21 7T82 131T121 266T135 405Q135 460 124 513T95 609L227 685Z"  />
<glyph unicode="*" horiz-adv-x="363" d="M161 343L190 453L89 408L66 481L168 518L86 575L142 639L217 575L236 677H318L288 567L389 613L413 539L312 502L393 445L336 381L261 445L244 343H161Z"  />
<glyph unicode="+" horiz-adv-x="510" d="M322 285L279 92H163L206 285H38L61 390H229L270 575H386L345 390H513L490 285H322Z"  />
<glyph unicode="&#x2c;" horiz-adv-x="283" d="M220 97Q220 63 207 29T170 -37T114 -96T42 -141L-18 -79Q-5 -74 11 -66T43 -46T72 -22T94 5Q92 4 88 4T81 4Q49 4 25 24T0 89Q0 112 10 132T36 168T74 193T118 202Q137 202 155 196T188 176T211 143T220 97Z"  />
<glyph unicode="-" horiz-adv-x="300" d="M13 167L46 317H286L253 167H13Z"  />
<glyph unicode="." horiz-adv-x="283" d="M98 -13Q57 -13 29 16T1 86Q1 110 10 131T36 167T73 192T118 202Q159 202 187 173T215 103Q215 79 206 58T180 22T143 -3T98 -13Z"  />
<glyph unicode="/" horiz-adv-x="362" d="M-61 -20L332 687H463L69 -20H-61Z"  />
<glyph unicode="0" horiz-adv-x="628" d="M290 -12Q234 -12 186 5T103 57T48 144T28 266Q28 353 54 428T128 558T238 645T377 677Q433 677 480 660T563 608T618 521T638 400Q638 313 612 238T539 108T429 20T290 -12ZM309 166Q340 166 364 189T403 249T427 327T435 409Q435 451 417 475T357 499Q325 499 302 476T262 417T238 339T230 257Q230 215 249 191T309 166Z"  />
<glyph unicode="1" horiz-adv-x="483" d="M173 0L263 410L126 298L38 417L348 667H522L375 0H173Z"  />
<glyph unicode="2" horiz-adv-x="613" d="M-13 0L26 183Q137 241 212 281T334 351T401 403T421 449Q421 473 394 487T325 501Q271 501 232 484T163 446L83 592Q134 633 202 655T341 677Q399 677 452 663T544 621T607 555T631 464Q631 422 616 385T566 312T480 244T354 176H571L532 0H-13Z"  />
<glyph unicode="3" horiz-adv-x="617" d="M306 -12Q256 -12 208 -4T116 22T38 65T-22 127L107 252Q126 229 151 213T202 187T255 171T304 166Q347 166 364 179T382 211Q382 217 380 223T368 235T339 243T286 247Q275 247 260 247T231 247T205 246T189 245L229 424Q233 424 245 424T272 423T301 423T325 423Q373 423 399 429T425 459Q425 480 397 490T315 500Q272 500 232 489T159 457L92 593Q136 631 198 654T336 677Q405 677 460 665T554 630T613 573T634 497Q634 468 618 442T577 394T519 358T454 338Q481 331 504 320T544 291T571 248T581 189Q581 143 559 106T498 43T410 2T306 -12Z"  />
<glyph unicode="4" horiz-adv-x="636" d="M285 0L308 107H-13L26 279L343 667H634L549 283H626L587 107H510L487 0H285ZM394 493L221 283H347L394 493Z"  />
<glyph unicode="5" horiz-adv-x="626" d="M313 -12Q207 -12 129 21T2 112L141 241Q169 209 213 188T314 166Q361 166 380 183T399 223Q399 248 372 262T298 276Q260 276 238 269T192 243L63 290L145 667H655L616 491H308L288 397Q317 420 344 429T414 438Q456 438 491 425T553 388T595 329T610 248Q610 194 589 147T529 65T435 9T313 -12Z"  />
<glyph unicode="6" horiz-adv-x="625" d="M319 -12Q251 -12 196 6T103 60T45 145T24 259Q24 350 51 427T129 559T251 646T412 677Q490 677 550 655T657 596L538 451Q511 476 474 487T399 499Q350 499 310 478T252 422Q248 415 246 407T241 390Q267 416 308 430T395 445Q440 445 480 432T550 393T597 333T615 253Q615 197 591 149T527 65T432 9T319 -12ZM318 166Q354 166 379 182T404 228Q404 241 395 251T371 269T337 281T296 285Q274 285 255 280T222 267Q221 262 221 257T221 246Q221 226 229 211T252 186T283 171T318 166Z"  />
<glyph unicode="7" horiz-adv-x="575" d="M58 0L375 491H72L111 667H656L625 527L289 0H58Z"  />
<glyph unicode="8" horiz-adv-x="630" d="M299 -12Q243 -12 190 -2T94 30T25 88T-1 175Q-1 203 9 230T39 283T91 328T167 363Q129 383 105 416T81 491Q81 541 106 576T173 634T266 667T369 677Q420 677 472 667T566 636T634 581T661 499Q661 439 619 392T504 326Q555 296 578 258T601 181Q601 133 575 97T507 36T410 0T299 -12ZM354 421Q396 423 420 435T445 464Q445 486 421 499T358 513Q328 513 306 501T284 471Q284 454 306 441T354 421ZM306 152Q348 152 372 165T396 197Q396 217 375 232T316 255Q295 254 277 251T244 241T221 224T212 201Q212 178 235 165T306 152Z"  />
<glyph unicode="9" horiz-adv-x="625" d="M344 678Q412 678 466 660T559 606T618 521T639 407Q639 315 612 239T534 107T412 20T251 -11Q173 -11 113 11T6 70L125 215Q152 190 189 179T264 167Q313 167 353 188T411 244Q415 251 417 259T422 276Q396 250 355 236T268 221Q223 221 183 234T113 273T66 333T48 413Q48 468 72 516T136 601T231 657T344 678ZM345 500Q309 500 284 484T259 438Q259 425 268 415T292 397T326 385T367 381Q389 381 408 386T441 399Q442 404 442 409T442 420Q442 440 434 455T411 480T380 495T345 500Z"  />
<glyph unicode=":" horiz-adv-x="283" d="M98 -13Q57 -13 29 16T1 86Q1 110 10 131T36 167T73 192T118 202Q159 202 187 173T215 103Q215 79 206 58T180 22T143 -3T98 -13ZM161 276Q120 276 92 305T64 375Q64 399 73 420T99 456T136 481T181 491Q222 491 250 462T278 392Q278 368 269 347T243 311T206 286T161 276Z"  />
<glyph unicode=";" horiz-adv-x="283" d="M220 97Q220 63 207 29T170 -37T114 -96T42 -141L-18 -79Q-5 -74 11 -66T43 -46T72 -22T94 5Q92 4 88 4T81 4Q49 4 25 24T0 89Q0 112 10 132T36 168T74 193T118 202Q137 202 155 196T188 176T211 143T220 97ZM161 276Q120 276 92 305T64 375Q64 399 73 420T99 456T136 481T181 491Q222 491 250 462T278 392Q278 368 269 347T243 311T206 286T161 276Z"  />
<glyph unicode="&lt;" horiz-adv-x="510" d="M34 270L63 400L555 580L526 450L166 329L473 210L446 90L34 270Z"  />
<glyph unicode="=" horiz-adv-x="510" d="M57 373L80 478H532L509 373H57ZM17 190L40 295H492L469 190H17Z"  />
<glyph unicode="&gt;" horiz-adv-x="510" d="M-6 90L23 220L384 339L76 460L103 580L515 400L486 270L-6 90Z"  />
<glyph unicode="?" horiz-adv-x="450" d="M148 224Q143 238 141 255T138 293Q138 330 149 356T177 399T213 429T250 449T278 465T289 481Q289 491 280 496T247 501Q227 501 203 494T158 470L75 609Q124 646 177 661T280 677Q323 677 363 668T434 639T483 593T502 528Q502 484 488 455T452 406T406 372T359 345T324 316T309 277Q309 275 310 270T314 260L148 224ZM185 -13Q144 -13 116 16T88 86Q88 110 97 131T123 167T160 192T205 202Q246 202 274 173T302 103Q302 79 293 58T267 22T230 -3T185 -13Z"  />
<glyph unicode="@" horiz-adv-x="783" d="M372 -70Q304 -70 246 -46T146 20T79 120T55 244Q55 323 88 394T175 520T302 606T452 638Q525 638 583 614T682 550T745 456T767 343Q767 276 745 227T690 147T617 100T544 85Q496 85 473 105T441 151L439 158Q413 120 378 103T310 85Q272 85 243 98T194 135T164 191T153 259Q153 307 171 350T219 425T288 477T370 497Q412 497 443 482T492 441L501 485H659L613 268Q612 264 611 255T610 241Q610 220 617 212T638 203Q653 203 667 212T692 239T710 283T717 343Q717 400 699 446T645 526T561 576T448 594Q378 594 315 566T204 491T128 380T100 247Q100 189 121 139T178 52T266 -6T377 -27Q425 -27 470 -13T556 27L580 -7Q533 -37 481 -53T372 -70ZM378 209Q406 209 423 222T452 250L471 345Q464 355 450 364T413 373Q390 373 372 365T341 342T322 310T315 273Q315 244 332 227T378 209Z"  />
<glyph unicode="A" horiz-adv-x="710" d="M455 0L448 78H208L167 0H-72L321 667H575L674 0H455ZM414 469L301 254H433L414 469Z"  />
<glyph unicode="B" horiz-adv-x="697" d="M0 0L147 667H518Q569 667 605 653T665 614T700 561T711 501Q711 469 699 440T666 387T618 349T561 331Q585 324 603 311T633 279T650 241T656 199Q656 166 644 131T604 67T531 19T419 0H0ZM447 421Q476 421 486 435T496 466Q496 480 487 489T460 499H314L295 421H447ZM398 168Q424 168 439 181T455 215Q455 232 445 242T417 253H258L239 168H398Z"  />
<glyph unicode="C" horiz-adv-x="697" d="M376 -12Q304 -12 241 9T131 70T56 166T28 294Q28 381 59 451T145 572T273 650T429 678Q502 678 557 659T650 608T713 537T749 457L555 396Q546 443 510 471T420 500Q379 500 346 484T288 442T251 380T237 308Q237 279 247 254T277 209T324 178T387 166Q406 166 426 172T465 188T498 213T522 243L680 141Q649 96 611 67T531 20T450 -5T376 -12Z"  />
<glyph unicode="D" horiz-adv-x="736" d="M0 0L147 667H440Q495 667 549 647T646 590T715 499T742 379Q742 316 720 249T646 126T509 36T297 0H0ZM334 176Q381 176 418 191T480 231T519 291T533 364Q533 391 524 414T497 454T456 481T403 491H310L241 176H330H334Z"  />
<glyph unicode="E" horiz-adv-x="596" d="M0 0L147 667H653L614 491H310L296 425H593L554 249H257L241 176H545L506 0H0Z"  />
<glyph unicode="F" horiz-adv-x="592" d="M0 0L147 667H653L614 491H310L296 425H593L554 249H257L202 0H0Z"  />
<glyph unicode="G" horiz-adv-x="726" d="M376 -12Q307 -12 244 8T133 68T57 164T28 294Q28 376 58 446T143 568T276 649T449 678Q509 678 556 662T640 619T700 559T736 493L550 417Q546 432 535 447T506 474T466 493T420 500Q382 500 349 485T290 444T251 383T237 308Q237 282 247 257T276 211T323 179T387 166Q437 166 478 196L483 221H359L399 397H724L663 123Q615 60 541 24T376 -12Z"  />
<glyph unicode="H" horiz-adv-x="751" d="M441 0L497 255H258L202 0H0L147 667H349L297 431H536L588 667H790L643 0H441Z"  />
<glyph unicode="I" horiz-adv-x="310" d="M0 0L147 667H349L202 0H0Z"  />
<glyph unicode="J" horiz-adv-x="498" d="M171 -12Q116 -12 59 3T-36 54L68 207Q82 190 106 178T156 166Q191 166 212 186T241 241L335 667H537L442 238Q428 174 406 127T351 49T274 3T171 -12Z"  />
<glyph unicode="K" horiz-adv-x="671" d="M399 0L296 241L243 185L202 0H0L147 667H349L297 431L514 667H771L451 357L635 0H399Z"  />
<glyph unicode="L" horiz-adv-x="536" d="M0 0L147 667H349L241 176H494L455 0H0Z"  />
<glyph unicode="M" horiz-adv-x="900" d="M590 0L678 401L441 0H351L290 401L202 0H0L147 667H419L465 347L653 667H939L792 0H590Z"  />
<glyph unicode="N" horiz-adv-x="750" d="M448 0L278 346L202 0H0L147 667H355L515 343L587 667H789L642 0H448Z"  />
<glyph unicode="O" horiz-adv-x="766" d="M376 -12Q302 -12 238 10T128 73T55 170T28 294Q28 374 58 444T141 566T268 648T429 678Q503 678 566 656T676 594T749 497T776 374Q776 294 746 224T663 102T537 19T376 -12ZM387 166Q427 166 460 181T517 223T554 285T567 358Q567 389 556 415T526 460T479 489T417 500Q377 500 344 485T287 443T250 381T237 308Q237 277 248 251T278 206T325 177T387 166Z"  />
<glyph unicode="P" horiz-adv-x="662" d="M0 0L147 667H499Q541 667 577 652T639 610T680 547T695 470Q695 434 682 389T634 304T544 237T400 210H248L202 0H0ZM410 386Q438 386 462 402T486 447Q486 470 472 480T431 491H310L287 386H410Z"  />
<glyph unicode="Q" horiz-adv-x="766" d="M376 -12Q302 -12 238 10T128 73T55 170T28 294Q28 374 58 444T141 566T268 648T429 678Q503 678 566 656T676 594T749 497T776 374Q776 281 737 203T628 71L656 23L495 -50L468 -2Q445 -7 423 -9T376 -12ZM499 297L530 241Q547 266 557 296T567 358Q567 389 556 415T526 460T479 489T417 500Q377 500 344 485T287 443T250 381T237 308Q237 250 273 211T371 166L338 224L499 297Z"  />
<glyph unicode="R" horiz-adv-x="678" d="M375 0L329 210H248L202 0H0L147 667H471Q516 667 557 653T628 612T677 549T695 465Q695 421 682 382T646 312T594 259T531 225L597 0H375ZM410 386Q443 386 464 400T486 443Q486 464 470 477T430 491H310L287 386H407H410Z"  />
<glyph unicode="S" horiz-adv-x="613" d="M316 -12Q263 -12 214 -3T121 23T42 64T-18 118L102 262Q119 239 144 221T200 189T264 168T332 160Q361 160 373 170T385 189Q385 203 362 213T303 235T226 261T149 299T90 355T66 438Q66 481 84 524T138 601T227 656T352 677Q434 677 511 649T643 566L522 426Q480 468 424 487T319 507Q299 507 289 499T278 480Q278 467 301 457T361 435T438 408T515 370T574 313T598 231Q598 178 578 134T522 57T433 7T316 -12Z"  />
<glyph unicode="T" horiz-adv-x="595" d="M143 0L251 491H72L111 667H670L631 491H453L345 0H143Z"  />
<glyph unicode="U" horiz-adv-x="767" d="M376 -12Q294 -12 234 6T134 56T75 133T55 232Q55 238 56 252T60 274L147 667H352L266 279Q264 269 264 255Q264 239 271 223T292 193T326 172T376 164Q438 164 471 197T515 279L601 667H806L719 275Q706 215 681 163T615 71T516 10T376 -12Z"  />
<glyph unicode="V" horiz-adv-x="710" d="M174 0L75 667H294L339 218L582 667H821L428 0H174Z"  />
<glyph unicode="W" horiz-adv-x="954" d="M509 0L506 378L337 0H125L81 667H302L298 259L489 667H641L652 259L827 667H1059L721 0H509Z"  />
<glyph unicode="X" horiz-adv-x="684" d="M420 0L334 192L176 0H-72L235 354L90 667H317L392 489L531 667H780L492 331L648 0H420Z"  />
<glyph unicode="Y" horiz-adv-x="664" d="M178 0L236 265L75 667H292L366 442L538 667H775L438 265L380 0H178Z"  />
<glyph unicode="Z" horiz-adv-x="600" d="M-18 0L17 160L334 491H90L129 667H650L615 508L297 176H549L510 0H-18Z"  />
<glyph unicode="[" horiz-adv-x="317" d="M-43 -190L150 678H395L370 564H250L108 -76H228L202 -190H-43Z"  />
<glyph unicode="\" horiz-adv-x="362" d="M98 687H223L303 -20H178L98 687Z"  />
<glyph unicode="]" horiz-adv-x="317" d="M-78 -190L-53 -76H67L209 564H89L114 678H359L166 -190H-78Z"  />
<glyph unicode="^" horiz-adv-x="450" d="M330 333L298 548L171 333H38L255 667H384L450 333H330Z"  />
<glyph unicode="_" horiz-adv-x="564" d="M-91 -154L-65 -40H504L478 -154H-91Z"  />
<glyph unicode="`" horiz-adv-x="275" d="M224 556L101 700H256L344 556H224Z"  />
<glyph unicode="a" horiz-adv-x="596" d="M268 495Q310 495 347 480T408 432L419 483H599L492 0H312L324 51Q292 16 262 2T193 -12Q112 -12 63 39T13 189Q13 239 28 293T76 392T155 466T268 495ZM300 336Q257 336 228 305T199 227Q199 191 223 169T279 147Q319 147 352 180L380 303Q350 336 300 336Z"  />
<glyph unicode="b" horiz-adv-x="596" d="M327 -12Q285 -12 248 3T187 51L176 0H-4L143 667H323L271 432Q303 467 333 481T402 495Q483 495 532 444T582 294Q582 244 567 190T519 91T439 17T327 -12ZM295 147Q338 147 367 178T396 256Q396 292 372 314T316 336Q276 336 243 303L215 180Q245 147 295 147Z"  />
<glyph unicode="c" horiz-adv-x="502" d="M268 -12Q209 -12 162 5T83 52T33 123T15 212Q15 272 37 323T99 413T191 473T306 495Q389 495 441 466T518 395L384 292Q373 310 353 323T304 336Q257 336 227 305T197 224Q197 189 223 168T286 147Q311 147 332 158T367 186L463 67Q451 54 432 40T389 15T334 -4T268 -12Z"  />
<glyph unicode="d" horiz-adv-x="596" d="M268 495Q310 495 347 480T408 432L460 667H640L492 0H312L324 51Q292 16 262 2T193 -12Q112 -12 63 39T13 189Q13 239 28 293T76 392T155 466T268 495ZM300 336Q257 336 228 305T199 227Q199 191 223 169T279 147Q319 147 352 180L380 303Q350 336 300 336Z"  />
<glyph unicode="e" horiz-adv-x="543" d="M279 -12Q220 -12 172 2T89 45T35 114T15 208Q15 266 36 318T95 409T186 472T302 495Q347 495 388 482T460 441T509 372T528 275Q528 250 525 225T517 186H193V185Q193 182 198 173T216 153T247 134T292 125Q321 125 350 131T397 149L452 32Q415 9 369 -1T279 -12ZM369 300V303Q369 308 366 317T354 336T331 351T295 358Q277 358 263 352T237 337T219 318T210 300H369Z"  />
<glyph unicode="f" horiz-adv-x="371" d="M33 0L105 327H25L60 483H139L145 509Q153 543 169 574T211 627T272 663T354 677Q394 677 435 665T503 625L419 525Q401 544 371 544Q351 544 340 533T324 504L319 483H418L383 327H285L213 0H33Z"  />
<glyph unicode="g" horiz-adv-x="595" d="M212 -196Q137 -196 73 -176T-39 -110L62 9Q73 -5 90 -15T127 -33T168 -45T209 -49Q226 -49 243 -45T275 -30T302 1T322 53L328 78Q302 46 268 30T196 13Q161 13 129 23T71 55T30 115T14 205Q14 258 30 310T79 403T157 469T264 495Q302 495 341 480T406 432L418 483H598L502 53Q484 -25 452 -73T379 -149T295 -186T212 -196ZM284 172Q305 172 323 181T356 206L376 297Q349 336 291 336Q254 336 227 313T200 242Q200 212 223 192T284 172Z"  />
<glyph unicode="h" horiz-adv-x="608" d="M324 0L380 259Q382 266 383 275T385 291Q385 316 366 326T320 336Q296 336 276 324T242 299L177 0H-3L144 667H324L270 428Q283 440 298 452T331 473T372 489T422 495Q498 495 539 459T581 368Q581 360 580 348T576 329L504 0H324Z"  />
<glyph unicode="i" horiz-adv-x="280" d="M211 518Q171 518 146 543T120 604Q120 632 130 653T157 690T194 712T234 720Q274 720 299 695T325 634Q325 606 315 585T288 548T251 526T211 518ZM-4 0L103 483H283L176 0H-4Z"  />
<glyph unicode="j" horiz-adv-x="280" d="M-39 -196Q-94 -196 -130 -187T-192 -156L-122 -28Q-111 -40 -97 -44T-66 -49Q-16 -49 0 21L103 483H283L180 21Q170 -26 153 -65T110 -134T48 -179T-39 -196ZM211 518Q171 518 146 543T120 604Q120 632 130 653T157 690T194 712T234 720Q274 720 299 695T325 634Q325 606 315 585T288 548T251 526T211 518Z"  />
<glyph unicode="k" horiz-adv-x="557" d="M299 0L248 159L200 109L176 0H-4L143 667H323L246 321L388 483H611L396 263L515 0H299Z"  />
<glyph unicode="l" horiz-adv-x="280" d="M-4 0L143 667H323L176 0H-4Z"  />
<glyph unicode="m" horiz-adv-x="897" d="M613 0L669 254Q671 261 673 272T675 291Q675 314 659 325T619 336Q596 336 579 325T550 299L484 0H304L360 254Q362 261 364 273T367 291Q367 312 352 324T310 336Q287 336 270 324T242 299L176 0H-4L103 483H283L270 428Q280 438 293 450T324 472T363 488T412 495Q451 495 479 483T524 455T550 424T558 403V402Q572 419 588 435T624 465T668 487T721 495Q750 495 777 487T825 462T858 423T871 368Q871 357 869 345T866 329L793 0H613Z"  />
<glyph unicode="n" horiz-adv-x="607" d="M323 0L379 254Q381 261 383 271T385 291Q385 316 367 326T327 336Q298 336 277 324T242 299L176 0H-4L103 483H283L270 428Q283 440 298 452T331 473T372 489T422 495Q498 495 539 459T581 368Q581 362 580 349T576 329L503 0H323Z"  />
<glyph unicode="o" horiz-adv-x="577" d="M272 -12Q208 -12 160 5T79 53T31 125T14 213Q14 268 35 319T94 409T186 471T303 495Q367 495 415 478T496 430T544 358T561 270Q561 214 540 163T481 73T389 11T272 -12ZM279 147Q301 147 319 156T350 181T370 217T377 261Q377 297 356 316T296 336Q273 336 255 327T225 302T205 265T198 222Q198 186 219 167T279 147Z"  />
<glyph unicode="p" horiz-adv-x="595" d="M327 -12Q285 -12 248 3T187 51L135 -184H-45L103 483H283L271 432Q303 467 333 481T402 495Q483 495 532 444T582 294Q582 244 567 190T519 91T439 17T327 -12ZM295 147Q338 147 367 178T396 256Q396 292 372 314T316 336Q276 336 243 303L215 180Q245 147 295 147Z"  />
<glyph unicode="q" horiz-adv-x="595" d="M268 495Q310 495 347 480T408 432L419 483H599L451 -184H271L324 51Q292 16 262 2T193 -12Q112 -12 63 39T13 189Q13 239 28 293T76 392T155 466T268 495ZM300 336Q257 336 228 305T199 227Q199 191 223 169T279 147Q319 147 352 180L380 303Q350 336 300 336Z"  />
<glyph unicode="r" horiz-adv-x="390" d="M-4 0L103 483H283L271 430Q299 459 340 478T434 497L395 321Q388 323 373 326T341 329Q312 329 286 320T240 292L176 0H-4Z"  />
<glyph unicode="s" horiz-adv-x="490" d="M231 -12Q198 -12 164 -7T96 10T34 38T-20 77L72 190Q84 179 103 166T146 142T196 124T248 116Q262 116 270 121T279 134Q279 148 262 156T218 171T162 188T105 213T62 254T44 318Q44 351 58 383T99 440T166 480T259 495Q320 495 379 475T484 417L400 308Q391 317 376 327T343 346T303 360T261 366Q241 366 233 359T224 345Q224 335 241 329T285 315T341 299T398 273T441 231T459 167Q459 129 444 97T399 40T327 2T231 -12Z"  />
<glyph unicode="t" horiz-adv-x="382" d="M240 -12Q162 -12 112 17T62 110Q62 115 63 126T66 148L105 327H25L60 483H140L169 615H349L320 483H418L383 327H285L259 209Q257 202 257 196T256 186Q256 169 267 158T301 147Q308 147 316 148T326 152V8Q312 -2 289 -7T240 -12Z"  />
<glyph unicode="u" horiz-adv-x="606" d="M282 483L223 216Q220 202 220 193Q220 168 238 158T281 147Q308 147 328 159T363 185L429 483H609L502 0H322L335 55Q322 43 307 31T274 10T233 -6T183 -12Q107 -12 66 24T24 115Q24 121 25 134T29 154L102 483H282Z"  />
<glyph unicode="v" horiz-adv-x="535" d="M118 0L38 483H223L253 207L408 483H603L309 0H118Z"  />
<glyph unicode="w" horiz-adv-x="805" d="M427 0L407 270L270 0H74L41 483H221L226 217L370 483H531L556 217L679 483H870L623 0H427Z"  />
<glyph unicode="x" horiz-adv-x="521" d="M287 0L240 128L135 0H-66L146 248L51 483H243L283 370L373 483H575L374 248L479 0H287Z"  />
<glyph unicode="y" horiz-adv-x="535" d="M8 -30Q17 -34 31 -35T59 -37Q95 -37 108 -18L118 -2L38 483H223L253 207L408 483H603L272 -60Q248 -99 224 -125T173 -167T116 -189T49 -196Q23 -196 -2 -193T-49 -183L8 -30Z"  />
<glyph unicode="z" horiz-adv-x="486" d="M-21 0L8 132L216 327H51L86 483H502L474 357L260 156H433L399 0H-21Z"  />
<glyph unicode="{" horiz-adv-x="316" d="M159 -190Q125 -190 95 -179T43 -148T7 -101T-6 -40Q-6 -22 -2 -6L29 133Q30 138 30 142T31 151Q31 172 21 184T-9 197L12 291Q41 291 56 309T78 355L109 493Q131 590 190 634T335 678H395L370 564H310Q250 564 234 494L196 322Q188 290 173 265T130 231Q159 214 159 174Q159 166 158 158T155 140L123 -5Q122 -10 122 -14T121 -22Q121 -47 136 -61T175 -76H228L202 -190H159Z"  />
<glyph unicode="|" horiz-adv-x="222" d="M74 -20V687H188V-20H74Z"  />
<glyph unicode="}" horiz-adv-x="316" d="M156 678Q190 678 220 667T272 636T308 589T321 528Q321 510 317 494L286 355Q285 350 285 346T284 337Q284 316 294 304T324 291L303 197Q274 197 259 179T237 133L206 -5Q184 -102 125 -146T-20 -190H-80L-55 -76H5Q65 -76 81 -6L119 166Q127 198 142 223T185 257Q156 274 156 314Q156 322 157 330T160 348L192 493Q193 498 193 502T194 510Q194 535 179 549T140 564H87L113 678H156Z"  />
<glyph unicode="~" horiz-adv-x="518" d="M583 653Q574 609 559 564T521 483T465 424T384 401Q346 401 325 413T293 443T279 482T274 521T269 551T255 563Q243 563 231 547T209 507T190 455T177 401L62 414Q71 460 86 505T124 587T181 645T262 667Q300 667 321 655T353 625T367 586T372 546T377 516T391 504Q403 504 415 520T438 561T457 614T470 667L583 653Z"  />
<glyph unicode="&#xA0;" horiz-adv-x="255" />
<glyph unicode="&#xA3;" horiz-adv-x="581" d="M56 379H103Q96 397 92 416T87 459Q87 507 109 547T170 616T260 661T368 677Q417 677 460 668T537 641T596 594T633 529L452 455Q447 487 427 501T378 515Q345 515 326 491T306 434Q306 419 308 406T314 379H449L424 270H311Q300 239 281 216T242 184Q256 189 266 190T284 191Q304 191 319 187T349 179T378 170T411 166Q436 166 452 175T482 199L523 40Q506 18 475 3T394 -12Q362 -12 329 -6T265 9T208 23T164 30Q138 30 113 22T56 -7L19 125Q67 148 98 186T129 269V270H31L56 379Z"  />
<glyph unicode="&#xA4;" horiz-adv-x="648" d="M286 84Q231 90 188 110L90 30L-1 144L85 214Q70 247 67 285T72 362Q86 429 130 481L75 554L193 648L254 567Q286 578 321 582T395 582Q454 575 498 552L592 628L683 519L598 450Q612 417 615 380T611 304Q596 236 551 182L606 114L489 20L426 98Q394 87 359 83T286 84ZM320 240Q365 235 395 259T434 323Q442 362 424 391T361 425Q316 430 287 406T250 343Q241 303 258 274T320 240Z"  />
<glyph unicode="&#xA5;" horiz-adv-x="664" d="M178 0L201 107H-6L17 212H224L236 265H29L53 370H194L75 667H292L366 442L538 667H775L526 370H669L645 265H438L426 212H633L610 107H403L380 0H178Z"  />
<glyph unicode="&#xA6;" horiz-adv-x="222" d="M74 -20V296H188V-20H74ZM74 371V687H188V371H74Z"  />
<glyph unicode="&#xA7;" horiz-adv-x="500" d="M497 344Q497 318 489 294T465 251T431 216T390 192Q416 177 429 151T442 96Q442 57 425 24T379 -32T309 -68T220 -81Q142 -81 73 -59T-43 5L51 111Q82 79 128 60T220 41Q242 41 253 49T264 68Q264 83 247 93T204 111T148 130T92 156T49 197T32 260Q32 361 142 406Q116 421 102 448T87 508Q87 548 104 579T150 632T219 665T304 677Q385 677 440 658T534 605L446 507Q425 527 388 541T311 555Q283 555 274 546T264 526Q264 512 281 504T324 488T380 471T436 445T479 405T497 344ZM311 302Q311 322 297 334T267 350Q239 345 226 330T213 295Q213 277 228 265T265 247Q288 252 299 268T311 302Z"  />
<glyph unicode="&#xA8;" horiz-adv-x="318" d="M440 628Q440 608 432 591T409 559T377 537T339 529Q305 529 283 551T260 608Q260 627 268 645T291 677T323 699T361 707Q395 707 417 685T440 628ZM224 628Q224 608 216 591T193 559T161 537T123 529Q89 529 67 551T44 608Q44 627 52 645T75 677T107 699T145 707Q179 707 201 685T224 628Z"  />
<glyph unicode="&#xA9;" horiz-adv-x="778" d="M754 334Q754 263 727 200T653 90T543 16T408 -11Q337 -11 274 16T165 90T91 200T64 334Q64 406 91 468T164 578T274 652T408 679Q480 679 543 652T653 578T727 469T754 334ZM712 334Q712 397 688 452T623 548T526 613T408 637Q346 637 291 613T195 548T130 452T106 334Q106 272 130 217T195 120T291 55T408 31Q471 31 526 55T622 120T688 216T712 334ZM538 181Q511 158 473 142T395 125Q352 125 317 138T256 176T218 234T204 307Q204 358 223 401T274 475T348 525T435 543Q486 543 529 523T598 462L553 430Q535 462 504 479T432 496Q400 496 369 482T314 444T274 385T259 309Q259 282 268 257T294 214T337 184T396 172Q429 172 458 186T508 221L538 181Z"  />
<glyph unicode="&#xAB;" horiz-adv-x="615" d="M149 63L29 243L229 420H393L189 238L305 63H149ZM384 63L264 243L464 420H628L424 238L540 63H384Z"  />
<glyph unicode="&#xAC;" horiz-adv-x="527" d="M469 190H361L401 373H57L80 478H532L469 190Z"  />
<glyph unicode="&#xAD;" horiz-adv-x="300" d="M13 167L46 317H286L253 167H13Z"  />
<glyph unicode="&#xAE;" horiz-adv-x="494" d="M508 465Q508 421 492 383T446 315T378 270T295 253Q251 253 213 269T146 315T101 382T84 465Q84 509 100 548T146 615T213 660T296 677Q340 677 379 661T446 616T491 548T508 465ZM473 465Q473 502 459 534T421 591T365 628T295 642Q258 642 226 629T170 591T133 535T119 465Q119 429 132 397T170 340T226 302T295 288Q332 288 364 302T421 340T459 396T473 465ZM328 343L286 439H245L224 343H187L240 586H334Q369 586 388 567T407 522Q407 505 401 490T383 464T357 447T327 440L371 343H328ZM368 520Q368 534 359 544T325 555H271L252 471H314Q340 471 354 485T368 520Z"  />
<glyph unicode="&#xB0;" horiz-adv-x="331" d="M377 528Q377 497 365 470T333 423T286 392T228 380Q197 380 170 391T123 423T92 470T80 528Q80 559 91 586T123 633T170 665T228 677Q259 677 286 665T333 633T365 586T377 528ZM287 528Q287 552 270 569T228 587Q204 587 188 570T171 528Q171 504 187 488T227 471Q251 471 269 487T287 528Z"  />
<glyph unicode="&#xB1;" horiz-adv-x="510" d="M331 328L288 135H172L215 328H47L70 433H238L280 618H396L354 433H522L499 328H331ZM-25 0L-2 105H450L427 0H-25Z"  />
<glyph unicode="&#xB2;" horiz-adv-x="407" d="M81 421L103 520Q186 567 233 595T305 641T335 669T341 690Q341 705 328 714T290 723Q258 723 227 711T179 682L127 770Q143 784 164 794T207 812T253 823T296 827Q338 827 371 818T428 792T464 753T477 703Q477 681 468 661T437 619T382 575T296 525H442L419 421H81Z"  />
<glyph unicode="&#xB3;" horiz-adv-x="407" d="M448 531Q448 510 437 489T405 452T352 425T280 414Q214 414 161 434T82 488L161 570Q183 542 214 530T273 518Q299 518 308 526T318 546Q318 572 239 572Q231 572 219 572T202 571L224 673Q227 673 236 673T256 672T277 672T293 672Q322 672 333 678T345 697Q345 711 325 717T279 723Q253 723 227 716T179 692L138 774Q168 800 209 813T293 827Q382 827 431 797T480 716Q480 700 474 684T455 653T420 630T370 618Q405 609 426 588T448 531Z"  />
<glyph unicode="&#xB5;" horiz-adv-x="620" d="M134 -184H-46L106 483H286L225 215Q217 182 232 165T279 147Q309 147 329 159T364 185L429 483H609L542 178Q538 162 546 155T569 147Q580 147 589 150L566 -2Q549 -7 527 -9T485 -12Q425 -12 391 9T349 75Q324 37 289 13T212 -12Q202 -12 191 -10T175 -5L134 -184Z"  />
<glyph unicode="&#xB6;" horiz-adv-x="449" d="M270 -100L423 587H355L202 -100H122L216 323Q188 323 163 334T120 367T90 416T79 479Q79 514 93 548T134 608T195 651T273 667H520L350 -100H270Z"  />
<glyph unicode="&#xB7;" horiz-adv-x="283" d="M131 138Q90 138 62 167T34 237Q34 261 43 282T69 318T106 343T151 353Q192 353 220 324T248 254Q248 230 239 209T213 173T176 148T131 138Z"  />
<glyph unicode="&#xBB;" horiz-adv-x="615" d="M233 420L353 240L153 63H-11L193 245L77 420H233ZM468 420L588 240L388 63H224L428 245L312 420H468Z"  />
<glyph unicode="&#xBD;" horiz-adv-x="927" d="M149 267L199 496L116 430L58 509L256 667H369L281 267H149ZM508 0L530 99Q613 146 660 174T732 220T762 248T768 269Q768 284 755 293T717 302Q685 302 654 290T606 261L554 349Q570 363 591 373T634 391T680 402T723 406Q765 406 798 397T855 371T891 332T904 282Q904 260 895 240T864 198T809 154T723 104H869L846 0H508ZM211 0H114L687 667H785L211 0Z"  />
<glyph unicode="&#x138;" horiz-adv-x="557" d="M299 0L248 159L200 109L176 0H-4L103 483H283L246 321L388 483H611L396 263L515 0H299Z"  />
<glyph unicode="&#x192;" horiz-adv-x="477" d="M-64 -161L21 223H-19V379H55L83 506Q99 581 148 629T282 677Q324 677 368 665T446 622L375 481Q360 501 330 501Q313 501 299 491T280 459L262 379H349V223H228L142 -161H-64Z"  />
<glyph unicode="&#x384;" horiz-adv-x="607" d="M187 541L260 765H394L261 541H187Z"  />
<glyph unicode="&#x385;" horiz-adv-x="607" d="M312 541L385 765H520L387 541H312ZM644 628Q644 608 636 591T613 559T581 537T543 529Q509 529 487 551T464 608Q464 627 472 645T495 677T527 699T565 707Q599 707 621 685T644 628ZM313 628Q313 608 305 591T282 559T250 537T212 529Q178 529 156 551T133 608Q133 627 141 645T164 677T196 699T234 707Q268 707 290 685T313 628Z"  />
<glyph unicode="&#x386;" horiz-adv-x="710" d="M104 541L177 765H311L178 541H104ZM455 0L448 78H208L167 0H-72L321 667H575L674 0H455ZM414 469L301 254H433L414 469Z"  />
<glyph unicode="&#x388;" horiz-adv-x="652" d="M48 541L121 765H255L122 541H48ZM56 0L203 667H709L670 491H366L352 425H649L610 249H313L297 176H601L562 0H56Z"  />
<glyph unicode="&#x389;" horiz-adv-x="807" d="M48 541L121 765H255L122 541H48ZM497 0L553 255H314L258 0H56L203 667H405L353 431H592L644 667H846L699 0H497Z"  />
<glyph unicode="&#x38A;" horiz-adv-x="366" d="M48 541L121 765H255L122 541H48ZM56 0L203 667H405L258 0H56Z"  />
<glyph unicode="&#x38C;" horiz-adv-x="766" d="M43 541L116 765H250L117 541H43ZM376 -12Q302 -12 238 10T128 73T55 170T28 294Q28 374 58 444T141 566T268 648T429 678Q503 678 566 656T676 594T749 497T776 374Q776 294 746 224T663 102T537 19T376 -12ZM387 166Q427 166 460 181T517 223T554 285T567 358Q567 389 556 415T526 460T479 489T417 500Q377 500 344 485T287 443T250 381T237 308Q237 277 248 251T278 206T325 177T387 166Z"  />
<glyph unicode="&#x38E;" horiz-adv-x="775" d="M48 541L121 765H255L122 541H48ZM289 0L347 265L186 667H403L477 442L649 667H886L549 265L491 0H289Z"  />
<glyph unicode="&#x38F;" horiz-adv-x="780" d="M43 541L116 765H250L117 541H43ZM156 176Q138 191 121 211T90 257T68 313T59 379Q59 428 81 480T151 577T270 649T441 678Q513 678 577 660T691 608T768 524T797 409Q797 364 781 327T742 260T692 209T643 176H730L691 0H393L432 176Q469 185 497 203T543 247T571 301T580 362Q580 421 543 460T431 499Q387 499 354 482T299 438T265 378T253 312Q253 267 271 233T332 176L293 0H-5L34 176H156Z"  />
<glyph unicode="&#x390;" horiz-adv-x="294" d="M158 541L231 765H366L233 541H158ZM490 628Q490 608 482 591T459 559T427 537T389 529Q355 529 333 551T310 608Q310 627 318 645T341 677T373 699T411 707Q445 707 467 685T490 628ZM159 628Q159 608 151 591T128 559T96 537T58 529Q24 529 2 551T-21 608Q-21 627 -13 645T10 677T42 699T80 707Q114 707 136 685T159 628ZM159 -12Q78 -12 45 26T28 140L106 483H286L216 178Q212 162 220 155T243 147Q254 147 263 150L240 -2Q223 -7 201 -9T159 -12Z"  />
<glyph unicode="&#x391;" horiz-adv-x="710" d="M455 0L448 78H208L167 0H-72L321 667H575L674 0H455ZM414 469L301 254H433L414 469Z"  />
<glyph unicode="&#x392;" horiz-adv-x="697" d="M0 0L147 667H518Q569 667 605 653T665 614T700 561T711 501Q711 469 699 440T666 387T618 349T561 331Q585 324 603 311T633 279T650 241T656 199Q656 166 644 131T604 67T531 19T419 0H0ZM447 421Q476 421 486 435T496 466Q496 480 487 489T460 499H314L295 421H447ZM398 168Q424 168 439 181T455 215Q455 232 445 242T417 253H258L239 168H398Z"  />
<glyph unicode="&#x393;" horiz-adv-x="592" d="M0 0L147 667H653L614 491H310L202 0H0Z"  />
<glyph unicode="&#x394;" horiz-adv-x="710" d="M-72 0L321 667H575L674 0H-72ZM414 469L260 176H440L414 469Z"  />
<glyph unicode="&#x395;" horiz-adv-x="596" d="M0 0L147 667H653L614 491H310L296 425H593L554 249H257L241 176H545L506 0H0Z"  />
<glyph unicode="&#x396;" horiz-adv-x="600" d="M-18 0L17 160L334 491H90L129 667H650L615 508L297 176H549L510 0H-18Z"  />
<glyph unicode="&#x397;" horiz-adv-x="751" d="M441 0L497 255H258L202 0H0L147 667H349L297 431H536L588 667H790L643 0H441Z"  />
<glyph unicode="&#x398;" horiz-adv-x="766" d="M264 249L303 425H537L498 249H264ZM376 -12Q302 -12 238 10T128 73T55 170T28 294Q28 374 58 444T141 566T268 648T429 678Q503 678 566 656T676 594T749 497T776 374Q776 294 746 224T663 102T537 19T376 -12ZM387 166Q427 166 460 181T517 223T554 285T567 358Q567 389 556 415T526 460T479 489T417 500Q377 500 344 485T287 443T250 381T237 308Q237 277 248 251T278 206T325 177T387 166Z"  />
<glyph unicode="&#x399;" horiz-adv-x="310" d="M0 0L147 667H349L202 0H0Z"  />
<glyph unicode="&#x39A;" horiz-adv-x="671" d="M399 0L296 241L243 185L202 0H0L147 667H349L297 431L514 667H771L451 357L635 0H399Z"  />
<glyph unicode="&#x39B;" horiz-adv-x="710" d="M455 0L414 469L167 0H-72L321 667H575L674 0H455Z"  />
<glyph unicode="&#x39C;" horiz-adv-x="900" d="M590 0L678 401L441 0H351L290 401L202 0H0L147 667H419L465 347L653 667H939L792 0H590Z"  />
<glyph unicode="&#x39D;" horiz-adv-x="750" d="M448 0L278 346L202 0H0L147 667H355L515 343L587 667H789L642 0H448Z"  />
<glyph unicode="&#x39E;" horiz-adv-x="636" d="M95 491L134 667H693L654 491H95ZM-12 0L27 176H586L547 0H-12ZM48 249L87 425H633L594 249H48Z"  />
<glyph unicode="&#x39F;" horiz-adv-x="766" d="M376 -12Q302 -12 238 10T128 73T55 170T28 294Q28 374 58 444T141 566T268 648T429 678Q503 678 566 656T676 594T749 497T776 374Q776 294 746 224T663 102T537 19T376 -12ZM387 166Q427 166 460 181T517 223T554 285T567 358Q567 389 556 415T526 460T479 489T417 500Q377 500 344 485T287 443T250 381T237 308Q237 277 248 251T278 206T325 177T387 166Z"  />
<glyph unicode="&#x3A0;" horiz-adv-x="751" d="M441 0L549 491H310L202 0H0L147 667H790L643 0H441Z"  />
<glyph unicode="&#x3A1;" horiz-adv-x="662" d="M0 0L147 667H499Q541 667 577 652T639 610T680 547T695 470Q695 434 682 389T634 304T544 237T400 210H248L202 0H0ZM410 386Q438 386 462 402T486 447Q486 470 472 480T431 491H310L287 386H410Z"  />
<glyph unicode="&#x3A3;" horiz-adv-x="597" d="M499 334L289 176H546L507 0H0L43 196L254 359L114 512L148 667H654L615 491H358L499 334Z"  />
<glyph unicode="&#x3A4;" horiz-adv-x="595" d="M143 0L251 491H72L111 667H670L631 491H453L345 0H143Z"  />
<glyph unicode="&#x3A5;" horiz-adv-x="664" d="M178 0L236 265L75 667H292L366 442L538 667H775L438 265L380 0H178Z"  />
<glyph unicode="&#x3A6;" horiz-adv-x="904" d="M297 0L313 71Q172 88 103 147T33 320Q33 380 62 429T144 515T270 572T433 600L449 667H651L634 594Q776 577 845 518T915 345Q915 285 886 236T804 151T677 94T514 66L499 0H297ZM243 320Q243 262 353 247L392 419Q315 410 279 386T243 320ZM705 346Q705 403 594 418L555 247Q632 255 668 279T705 346Z"  />
<glyph unicode="&#x3A7;" horiz-adv-x="684" d="M420 0L334 192L176 0H-72L235 354L90 667H317L392 489L531 667H780L492 331L648 0H420Z"  />
<glyph unicode="&#x3A8;" horiz-adv-x="937" d="M314 0L344 133Q211 152 151 211T91 361Q91 380 93 400T101 443L152 667H357L300 417Q297 405 297 394Q297 332 385 311L466 667H668L587 312Q643 324 676 351T718 417L775 667H981L916 380Q905 333 875 291T798 214T687 156T545 126L516 0H314Z"  />
<glyph unicode="&#x3A9;" horiz-adv-x="766" d="M142 176Q124 191 107 211T76 257T54 313T45 379Q45 428 67 480T137 577T256 649T427 678Q499 678 563 660T677 608T754 524T783 409Q783 364 767 327T728 260T678 209T629 176H716L677 0H379L418 176Q455 185 483 203T529 247T557 301T566 362Q566 421 529 460T417 499Q373 499 340 482T285 438T251 378T239 312Q239 267 257 233T318 176L279 0H-19L20 176H142Z"  />
<glyph unicode="&#x3AA;" horiz-adv-x="310" d="M0 0L147 667H349L202 0H0ZM476 812Q476 792 468 775T445 743T413 721T375 713Q341 713 319 735T296 792Q296 811 304 829T327 861T359 883T397 891Q431 891 453 869T476 812ZM260 812Q260 792 252 775T229 743T197 721T159 713Q125 713 103 735T80 792Q80 811 88 829T111 861T143 883T181 891Q215 891 237 869T260 812Z"  />
<glyph unicode="&#x3AB;" horiz-adv-x="664" d="M178 0L236 265L75 667H292L366 442L538 667H775L438 265L380 0H178ZM655 812Q655 792 647 775T624 743T592 721T554 713Q520 713 498 735T475 792Q475 811 483 829T506 861T538 883T576 891Q610 891 632 869T655 812ZM439 812Q439 792 431 775T408 743T376 721T338 713Q304 713 282 735T259 792Q259 811 267 829T290 861T322 883T360 891Q394 891 416 869T439 812Z"  />
<glyph unicode="&#x3AC;" horiz-adv-x="610" d="M320 541L393 765H527L394 541H320ZM556 -2Q539 -7 517 -9T475 -12Q418 -12 383 8T340 70Q318 46 300 30T264 5T229 -8T193 -12Q112 -12 63 39T13 189Q13 239 28 293T76 392T155 466T268 495Q310 495 347 480T408 432L420 483H599L532 178Q528 162 536 155T559 147Q570 147 579 150L556 -2ZM279 147Q319 147 352 180L380 303Q350 336 300 336Q257 336 228 305T199 227Q199 191 223 169T279 147Z"  />
<glyph unicode="&#x3AD;" horiz-adv-x="493" d="M286 541L359 765H493L360 541H286ZM221 -12Q159 -12 116 -2T44 25T4 67T-9 119Q-9 149 7 172T48 212T100 238T151 249Q100 258 76 284T52 342Q52 374 70 402T121 450T203 483T310 495Q385 495 439 471T528 412L424 316Q398 340 368 350T303 360Q269 360 251 352T233 333Q233 325 242 317T284 309H374L344 177H254Q215 177 199 167T183 145Q183 136 193 130T236 123Q268 123 313 134T398 169L457 60Q412 29 351 9T221 -12Z"  />
<glyph unicode="&#x3AE;" horiz-adv-x="607" d="M328 541L401 765H535L402 541H328ZM281 -184L382 268Q385 281 385 291Q385 316 366 326T320 336Q296 336 276 324T242 299L176 0H-4L103 483H283L270 428Q283 440 298 452T331 473T372 489T422 495Q498 495 539 459T581 368Q581 362 580 349T576 329L461 -184H281Z"  />
<glyph unicode="&#x3AF;" horiz-adv-x="294" d="M171 541L244 765H378L245 541H171ZM159 -12Q78 -12 45 26T28 140L106 483H286L216 178Q212 162 220 155T243 147Q254 147 263 150L240 -2Q223 -7 201 -9T159 -12Z"  />
<glyph unicode="&#x3B0;" horiz-adv-x="592" d="M315 541L388 765H523L390 541H315ZM647 628Q647 608 639 591T616 559T584 537T546 529Q512 529 490 551T467 608Q467 627 475 645T498 677T530 699T568 707Q602 707 624 685T647 628ZM316 628Q316 608 308 591T285 559T253 537T215 529Q181 529 159 551T136 608Q136 627 144 645T167 677T199 699T237 707Q271 707 293 685T316 628ZM263 -12Q198 -12 152 5T79 54T44 129T47 224L106 483H286L228 227Q220 193 233 170T282 147Q342 147 373 195T404 323Q404 348 400 378T388 428L570 495Q576 480 580 462T588 424T592 385T593 350Q593 273 571 207T506 92T402 16T263 -12Z"  />
<glyph unicode="&#x3B1;" horiz-adv-x="610" d="M556 -2Q539 -7 517 -9T475 -12Q418 -12 383 8T340 70Q318 46 300 30T264 5T229 -8T193 -12Q112 -12 63 39T13 189Q13 239 28 293T76 392T155 466T268 495Q310 495 347 480T408 432L420 483H599L532 178Q528 162 536 155T559 147Q570 147 579 150L556 -2ZM279 147Q319 147 352 180L380 303Q350 336 300 336Q257 336 228 305T199 227Q199 191 223 169T279 147Z"  />
<glyph unicode="&#x3B2;" horiz-adv-x="596" d="M342 -12Q291 -12 254 2T187 49L134 -184H-46L96 441Q111 507 144 552T221 624T312 664T404 677Q513 677 570 635T627 517Q627 486 613 458T575 406T517 366T446 344Q470 338 492 328T531 302T558 261T568 203Q568 155 547 115T492 47T419 4T342 -12ZM216 177Q243 147 300 147Q342 147 365 166T388 211Q388 230 373 242T325 255H281L317 415H355Q398 415 415 434T432 476Q432 517 372 517Q336 517 310 495T276 441L216 177Z"  />
<glyph unicode="&#x3B3;" horiz-adv-x="535" d="M81 -184L99 -105Q118 -20 122 64T116 224T84 366T31 483H231Q245 455 255 419T272 344T281 268T280 201Q295 220 312 253T347 326T378 406T401 483H581Q567 423 539 357T473 226T392 105T304 4L261 -184H81Z"  />
<glyph unicode="&#x3B4;" horiz-adv-x="577" d="M258 -12Q194 -12 148 4T71 50T26 118T11 202Q11 242 24 277T58 339T105 388T159 423Q146 438 139 458T131 505Q131 539 149 570T200 626T281 664T388 679Q449 679 498 662T583 617L488 489Q470 508 435 523T357 539Q337 539 323 534T308 520Q308 510 327 504T375 489T437 467T500 429T548 367T567 271Q567 221 545 171T481 80T383 14T258 -12ZM389 249Q389 270 381 285T360 312T329 333T292 350Q247 328 224 293T200 227Q200 190 221 169T283 147Q305 147 324 156T357 179T380 211T389 249Z"  />
<glyph unicode="&#x3B5;" horiz-adv-x="493" d="M221 -12Q159 -12 116 -2T44 25T4 67T-9 119Q-9 149 7 172T48 212T100 238T151 249Q100 258 76 284T52 342Q52 374 70 402T121 450T203 483T310 495Q385 495 439 471T528 412L424 316Q398 340 368 350T303 360Q269 360 251 352T233 333Q233 325 242 317T284 309H374L344 177H254Q215 177 199 167T183 145Q183 136 193 130T236 123Q268 123 313 134T398 169L457 60Q412 29 351 9T221 -12Z"  />
<glyph unicode="&#x3B6;" horiz-adv-x="482" d="M223 -18Q223 -12 215 -12Q114 -12 59 35T4 165Q4 216 24 266T81 361T168 444T280 511H95L131 667H547L518 541Q468 518 411 481T306 398T227 302T195 204Q195 172 216 160T275 147Q355 147 388 123T421 54Q421 9 393 -41T312 -157H119Q134 -144 152 -124T185 -84T212 -46T223 -18Z"  />
<glyph unicode="&#x3B7;" horiz-adv-x="607" d="M281 -184L382 268Q385 281 385 291Q385 316 366 326T320 336Q296 336 276 324T242 299L176 0H-4L103 483H283L270 428Q283 440 298 452T331 473T372 489T422 495Q498 495 539 459T581 368Q581 362 580 349T576 329L461 -184H281Z"  />
<glyph unicode="&#x3B8;" horiz-adv-x="577" d="M271 -12Q219 -12 175 5T98 57T47 144T28 266Q28 353 52 428T120 559T223 647T352 679Q404 679 448 662T524 609T575 522T594 400Q594 313 570 238T502 108T400 20T271 -12ZM282 147Q312 147 337 179T379 257H208V238Q208 196 226 172T282 147ZM339 520Q309 520 284 489T242 413H411Q412 417 412 421T412 430Q412 472 395 496T339 520Z"  />
<glyph unicode="&#x3B9;" horiz-adv-x="294" d="M159 -12Q78 -12 45 26T28 140L106 483H286L216 178Q212 162 220 155T243 147Q254 147 263 150L240 -2Q223 -7 201 -9T159 -12Z"  />
<glyph unicode="&#x3BA;" horiz-adv-x="557" d="M299 0L248 159L200 109L176 0H-4L103 483H283L246 321L388 483H611L396 263L515 0H299Z"  />
<glyph unicode="&#x3BB;" horiz-adv-x="535" d="M143 671Q150 673 160 674T181 677T201 678T215 679Q253 678 285 673T343 652T385 611T409 543L496 0H311L281 276L126 0H-69L233 491L231 501Q227 520 172 520Q163 520 152 518T132 511L143 671Z"  />
<glyph unicode="&#x3BC;" horiz-adv-x="620" d="M134 -184H-46L106 483H286L225 215Q217 182 232 165T279 147Q309 147 329 159T364 185L429 483H609L542 178Q538 162 546 155T569 147Q580 147 589 150L566 -2Q549 -7 527 -9T485 -12Q425 -12 391 9T349 75Q324 37 289 13T212 -12Q202 -12 191 -10T175 -5L134 -184Z"  />
<glyph unicode="&#x3BD;" horiz-adv-x="535" d="M118 0L41 483H231L263 179Q288 209 309 247T348 326T379 407T401 483H581Q567 422 538 355T471 223T388 100T299 0H118Z"  />
<glyph unicode="&#x3BE;" horiz-adv-x="482" d="M215 -12Q103 -12 49 29T-5 140Q-5 200 34 241T136 303Q104 309 83 330T62 389Q62 407 70 425T94 459T129 489T174 511H102L138 667H547L511 511H319Q293 503 278 489T262 451Q262 433 280 423T336 412H486L451 258H301Q244 258 218 240T192 191Q192 147 275 147Q355 147 388 123T421 54Q421 9 393 -41T312 -157H124Q135 -146 152 -127T184 -86T211 -47T223 -18Q223 -12 215 -12Z"  />
<glyph unicode="&#x3BF;" horiz-adv-x="577" d="M272 -12Q208 -12 160 5T79 53T31 125T14 213Q14 268 35 319T94 409T186 471T303 495Q367 495 415 478T496 430T544 358T561 270Q561 214 540 163T481 73T389 11T272 -12ZM279 147Q301 147 319 156T350 181T370 217T377 261Q377 297 356 316T296 336Q273 336 255 327T225 302T205 265T198 222Q198 186 219 167T279 147Z"  />
<glyph unicode="&#x3C0;" horiz-adv-x="681" d="M360 0L434 327H287L213 0H33L107 327H27L63 483H730L694 327H614L540 0H360Z"  />
<glyph unicode="&#x3C1;" horiz-adv-x="595" d="M327 -12Q289 -12 250 3T188 51L134 -184H-46L50 242Q63 299 88 346T152 426T241 477T352 495Q406 495 448 479T520 434T566 364T582 274Q582 231 567 181T519 88T439 17T327 -12ZM295 147Q338 147 367 178T396 256Q396 292 375 314T323 336Q284 336 261 309T229 242L215 180Q245 147 295 147Z"  />
<glyph unicode="&#x3C2;" horiz-adv-x="502" d="M231 -12Q192 -12 154 4T85 49T35 120T15 212Q15 272 37 323T99 413T191 473T306 495Q389 495 441 466T518 395L384 292Q373 310 353 323T304 336Q257 336 227 305T197 224Q197 189 221 168T314 147Q367 147 400 122T433 49Q433 8 405 -42T325 -157H132Q147 -145 165 -125T198 -85T225 -46T236 -18Q236 -12 231 -12Z"  />
<glyph unicode="&#x3C3;" horiz-adv-x="577" d="M543 242Q543 194 523 149T467 67T382 10T272 -12Q208 -12 160 5T79 53T31 125T14 213Q14 271 37 320T102 406T200 462T324 483H618L582 324H517Q531 307 537 285T543 242ZM377 261Q377 278 372 295T356 324H307Q256 324 227 297T198 222Q198 186 219 167T279 147Q301 147 319 156T350 181T370 217T377 261Z"  />
<glyph unicode="&#x3C4;" horiz-adv-x="495" d="M267 -12Q186 -12 153 26T136 140L178 327H35L71 483H536L500 327H358L328 192Q323 173 331 160T357 147Q369 147 380 150T395 156L397 20Q380 7 347 -2T267 -12Z"  />
<glyph unicode="&#x3C5;" horiz-adv-x="592" d="M263 -12Q198 -12 152 5T79 54T44 129T47 224L106 483H286L228 227Q220 193 233 170T282 147Q342 147 373 195T404 323Q404 348 400 378T388 428L570 495Q576 480 580 462T588 424T592 385T593 350Q593 273 571 207T506 92T402 16T263 -12Z"  />
<glyph unicode="&#x3C6;" horiz-adv-x="846" d="M837 269Q837 210 812 161T739 76T619 17T456 -10L417 -184H237L277 -5Q139 10 76 66T13 222Q13 318 81 384T268 495L311 355Q284 346 264 333T230 305T210 274T203 244Q203 203 229 182T313 152L391 495H480Q661 495 749 440T837 269ZM493 151Q577 159 612 184T647 249Q647 271 638 286T613 310T577 324T534 331L493 151Z"  />
<glyph unicode="&#x3C7;" horiz-adv-x="521" d="M245 -184L210 -8L93 -184H-108L128 159L54 483H246L275 327L376 483H578L356 159L437 -184H245Z"  />
<glyph unicode="&#x3C8;" horiz-adv-x="846" d="M237 -184L278 -3Q158 14 104 68T50 205Q50 239 59 278L106 483H286L235 258Q232 246 232 235Q232 204 254 185T314 156L431 667H611L494 156Q545 167 578 191T621 258L672 483H852L796 236Q784 187 757 145T688 70T587 18T456 -9L417 -184H237Z"  />
<glyph unicode="&#x3C9;" horiz-adv-x="897" d="M889 306Q889 244 869 187T810 85T719 15T599 -12Q527 -12 481 20T420 115Q398 83 377 60T331 20T277 -4T212 -12Q166 -12 129 4T65 47T25 110T10 187Q10 237 24 281T63 364T120 435T186 495L302 396Q245 344 222 300T199 217Q199 187 214 167T258 147Q296 147 323 174T359 242L386 363H566L539 242Q530 201 544 174T596 147Q619 147 638 157T671 184T692 226T700 278Q700 307 692 337T666 396L826 495Q853 463 871 415T889 306Z"  />
<glyph unicode="&#x3CA;" horiz-adv-x="294" d="M425 628Q425 608 417 591T394 559T362 537T324 529Q290 529 268 551T245 608Q245 627 253 645T276 677T308 699T346 707Q380 707 402 685T425 628ZM209 628Q209 608 201 591T178 559T146 537T108 529Q74 529 52 551T29 608Q29 627 37 645T60 677T92 699T130 707Q164 707 186 685T209 628ZM159 -12Q78 -12 45 26T28 140L106 483H286L216 178Q212 162 220 155T243 147Q254 147 263 150L240 -2Q223 -7 201 -9T159 -12Z"  />
<glyph unicode="&#x3CB;" horiz-adv-x="592" d="M582 628Q582 608 574 591T551 559T519 537T481 529Q447 529 425 551T402 608Q402 627 410 645T433 677T465 699T503 707Q537 707 559 685T582 628ZM366 628Q366 608 358 591T335 559T303 537T265 529Q231 529 209 551T186 608Q186 627 194 645T217 677T249 699T287 707Q321 707 343 685T366 628ZM263 -12Q198 -12 152 5T79 54T44 129T47 224L106 483H286L228 227Q220 193 233 170T282 147Q342 147 373 195T404 323Q404 348 400 378T388 428L570 495Q576 480 580 462T588 424T592 385T593 350Q593 273 571 207T506 92T402 16T263 -12Z"  />
<glyph unicode="&#x3CC;" horiz-adv-x="577" d="M313 541L386 765H520L387 541H313ZM272 -12Q208 -12 160 5T79 53T31 125T14 213Q14 268 35 319T94 409T186 471T303 495Q367 495 415 478T496 430T544 358T561 270Q561 214 540 163T481 73T389 11T272 -12ZM279 147Q301 147 319 156T350 181T370 217T377 261Q377 297 356 316T296 336Q273 336 255 327T225 302T205 265T198 222Q198 186 219 167T279 147Z"  />
<glyph unicode="&#x3CD;" horiz-adv-x="592" d="M326 541L399 765H533L400 541H326ZM263 -12Q198 -12 152 5T79 54T44 129T47 224L106 483H286L228 227Q220 193 233 170T282 147Q342 147 373 195T404 323Q404 348 400 378T388 428L570 495Q576 480 580 462T588 424T592 385T593 350Q593 273 571 207T506 92T402 16T263 -12Z"  />
<glyph unicode="&#x3CE;" horiz-adv-x="897" d="M475 541L548 765H682L549 541H475ZM889 306Q889 244 869 187T810 85T719 15T599 -12Q527 -12 481 20T420 115Q398 83 377 60T331 20T277 -4T212 -12Q166 -12 129 4T65 47T25 110T10 187Q10 237 24 281T63 364T120 435T186 495L302 396Q245 344 222 300T199 217Q199 187 214 167T258 147Q296 147 323 174T359 242L386 363H566L539 242Q530 201 544 174T596 147Q619 147 638 157T671 184T692 226T700 278Q700 307 692 337T666 396L826 495Q853 463 871 415T889 306Z"  />
<glyph unicode="&#x2013;" horiz-adv-x="593" d="M13 167L46 317H579L546 167H13Z"  />
<glyph unicode="&#x2014;" horiz-adv-x="833" d="M13 167L46 317H819L786 167H13Z"  />
<glyph unicode="&#x2015;" horiz-adv-x="593" d="M13 167L46 317H579L546 167H13Z"  />
<glyph unicode="&#x2018;" horiz-adv-x="281" d="M73 440Q73 474 86 508T123 574T179 633T251 678L311 616Q298 611 282 603T250 583T221 559T199 532Q202 533 206 533T212 533Q244 533 268 513T293 448Q293 425 283 405T257 369T219 344T175 335Q155 335 137 341T105 361T82 394T73 440Z"  />
<glyph unicode="&#x2019;" horiz-adv-x="281" d="M325 572Q325 538 312 504T275 438T219 379T147 334L87 396Q100 401 116 409T148 429T177 453T199 480Q196 479 192 479T186 479Q154 479 130 499T105 564Q105 587 115 607T141 643T179 668T223 677Q242 677 260 671T293 651T316 618T325 572Z"  />
<glyph unicode="&#x201A;" horiz-adv-x="281" d="M220 97Q220 63 207 29T170 -37T114 -96T42 -141L-18 -79Q-5 -74 11 -66T43 -46T72 -22T94 5Q92 4 88 4T81 4Q49 4 25 24T0 89Q0 112 10 132T36 168T74 193T118 202Q137 202 155 196T188 176T211 143T220 97Z"  />
<glyph unicode="&#x201C;" horiz-adv-x="528" d="M316 440Q316 474 329 508T366 574T422 633T494 678L554 616Q541 611 525 603T493 583T464 559T442 532Q445 533 449 533T455 533Q487 533 511 513T536 448Q536 425 526 405T500 369T462 344T418 335Q398 335 380 341T348 361T325 394T316 440ZM69 440Q69 474 82 508T119 574T175 633T247 678L307 616Q294 611 278 603T246 583T217 559T195 532Q198 533 202 533T208 533Q240 533 264 513T289 448Q289 425 279 405T253 369T215 344T171 335Q151 335 133 341T101 361T78 394T69 440Z"  />
<glyph unicode="&#x201D;" horiz-adv-x="528" d="M325 572Q325 538 312 504T275 438T219 379T147 334L87 396Q100 401 116 409T148 429T177 453T199 480Q196 479 192 479T186 479Q154 479 130 499T105 564Q105 587 115 607T141 643T179 668T223 677Q242 677 260 671T293 651T316 618T325 572ZM572 572Q572 538 559 504T522 438T466 379T394 334L334 396Q347 401 363 409T395 429T424 453T446 480Q443 479 439 479T433 479Q401 479 377 499T352 564Q352 587 362 607T388 643T426 668T470 677Q489 677 507 671T540 651T563 618T572 572Z"  />
<glyph unicode="&#x201E;" horiz-adv-x="528" d="M220 97Q220 63 207 29T170 -37T114 -96T42 -141L-18 -79Q-5 -74 11 -66T43 -46T72 -22T94 5Q92 4 88 4T81 4Q49 4 25 24T0 89Q0 112 10 132T36 168T74 193T118 202Q137 202 155 196T188 176T211 143T220 97ZM467 97Q467 63 454 29T417 -37T361 -96T289 -141L229 -79Q242 -74 258 -66T290 -46T319 -22T341 5Q339 4 335 4T328 4Q296 4 272 24T247 89Q247 112 257 132T283 168T321 193T365 202Q384 202 402 196T435 176T458 143T467 97Z"  />
<glyph unicode="&#x2020;" horiz-adv-x="291" d="M245 517L207 327H119L166 517L76 513L94 594L183 591L197 677H285L262 591L351 594L333 513L245 517Z"  />
<glyph unicode="&#x2021;" horiz-adv-x="291" d="M333 513L245 517L206 342L296 346L278 265L190 268L174 180H86L110 268L21 265L39 346L126 342L165 517L76 513L94 594L182 591L197 677H285L262 591L351 594L333 513Z"  />
<glyph unicode="&#x2022;" horiz-adv-x="358" d="M310 255Q310 226 299 200T267 155T221 124T165 113Q114 113 81 146T48 230Q48 259 59 285T91 330T137 361T193 372Q244 372 277 339T310 255Z"  />
<glyph unicode="&#x2026;" horiz-adv-x="846" d="M98 -13Q57 -13 29 16T1 86Q1 110 10 131T36 167T73 192T118 202Q159 202 187 173T215 103Q215 79 206 58T180 22T143 -3T98 -13ZM380 -13Q339 -13 311 16T283 86Q283 110 292 131T318 167T355 192T400 202Q441 202 469 173T497 103Q497 79 488 58T462 22T425 -3T380 -13ZM662 -13Q621 -13 593 16T565 86Q565 110 574 131T600 167T637 192T682 202Q723 202 751 173T779 103Q779 79 770 58T744 22T707 -3T662 -13Z"  />
<glyph unicode="&#x2030;" horiz-adv-x="1160" d="M77 0L650 667H748L174 0H77ZM555 -12Q522 -12 491 -3T436 25T398 69T384 130Q384 173 399 209T441 270T502 310T576 324Q609 324 640 315T695 287T733 243T747 182Q747 139 732 103T690 42T629 2T555 -12ZM559 94Q587 94 606 114T625 171Q625 191 611 204T572 218Q544 218 525 198T506 141Q506 121 520 108T559 94ZM247 341Q214 341 183 350T128 378T90 422T76 483Q76 526 91 562T133 623T194 663T268 677Q301 677 332 668T387 640T425 596T439 535Q439 492 424 456T382 395T321 355T247 341ZM251 447Q279 447 298 467T317 524Q317 544 303 557T264 571Q236 571 217 551T198 494Q198 474 212 461T251 447ZM931 -12Q898 -12 867 -3T812 25T774 69T760 130Q760 173 775 209T817 270T878 310T952 324Q985 324 1016 315T1071 287T1109 243T1123 182Q1123 139 1108 103T1066 42T1005 2T931 -12ZM935 94Q963 94 982 114T1001 171Q1001 191 987 204T948 218Q920 218 901 198T882 141Q882 121 896 108T935 94Z"  />
<glyph unicode="&#x2039;" horiz-adv-x="380" d="M149 63L29 243L229 420H393L189 238L305 63H149Z"  />
<glyph unicode="&#x203A;" horiz-adv-x="380" d="M233 420L353 240L153 63H-11L193 245L77 420H233Z"  />
<glyph unicode="&#x2044;" horiz-adv-x="180" d="M-129 0H-226L347 667H445L-129 0Z"  />
<glyph unicode="&#x20AC;" horiz-adv-x="722" d="M407 -12Q346 -12 291 3T192 48T116 118T69 213H5L28 318H60Q60 334 63 351H35L59 456H92Q115 508 152 549T237 618T341 662T460 678Q533 678 588 659T681 608T744 537T780 457L586 396Q577 443 541 471T451 500Q416 500 387 488T334 456H517L493 351H272Q270 343 269 335T268 318H486L463 213H304Q324 191 352 179T418 166Q437 166 457 172T496 188T529 213T553 243L711 141Q680 96 642 67T562 20T481 -5T407 -12Z"  />
<glyph unicode="&#x2122;" horiz-adv-x="454" d="M436 447L476 629L361 447H353L318 629L278 447H250L298 667H341L370 507L469 667H512L464 447H436ZM195 641L152 447H124L167 641H105L110 667H262L257 641H195Z"  />
<glyph unicode="&#x2126;" horiz-adv-x="766" d="M142 176Q124 191 107 211T76 257T54 313T45 379Q45 428 67 480T137 577T256 649T427 678Q499 678 563 660T677 608T754 524T783 409Q783 364 767 327T728 260T678 209T629 176H716L677 0H379L418 176Q455 185 483 203T529 247T557 301T566 362Q566 421 529 460T417 499Q373 499 340 482T285 438T251 378T239 312Q239 267 257 233T318 176L279 0H-19L20 176H142Z"  />
<glyph unicode="&#xF656;" horiz-adv-x="336" d="M90 0L140 229L57 163L-1 242L197 400H310L222 0H90Z"  />
<glyph unicode="&#xF657;" horiz-adv-x="407" d="M-12 0L10 99Q93 146 140 174T212 220T242 248T248 269Q248 284 235 293T197 302Q165 302 134 290T86 261L34 349Q50 363 71 373T114 391T160 402T203 406Q245 406 278 397T335 371T371 332T384 282Q384 260 375 240T344 198T289 154T203 104H349L326 0H-12Z"  />
<glyph unicode="&#xF658;" horiz-adv-x="407" d="M355 110Q355 89 344 68T312 31T259 4T187 -7Q121 -7 68 13T-11 67L68 149Q90 121 121 109T180 97Q206 97 215 105T225 125Q225 151 146 151Q138 151 126 151T109 150L131 252Q134 252 143 252T163 251T184 251T200 251Q229 251 240 257T252 276Q252 290 232 296T186 302Q160 302 134 295T86 271L45 353Q75 379 116 392T200 406Q289 406 338 376T387 295Q387 279 381 263T362 232T327 209T277 197Q312 188 333 167T355 110Z"  />


</font>
</defs>
</svg>
